<svg xmlns="http://www.w3.org/2000/svg" viewBox="0 0 512 512"><title>Artboard 155</title><g id="Processor"><rect x="64" y="106.66667" width="42.66667" height="128" rx="21.33331" ry="21.33331" transform="translate(-85.33333 256) rotate(-90)" style="fill:#5e7599"/><rect x="234.66667" y="21.33333" width="42.66667" height="128" rx="21.33331" ry="21.33331" style="fill:#5e7599"/><rect x="149.33333" y="21.33333" width="42.66667" height="128" rx="21.33331" ry="21.33331" style="fill:#5e7599"/><rect x="320" y="21.33333" width="42.66667" height="128" rx="21.33331" ry="21.33331" style="fill:#5e7599"/><rect x="149.33333" y="362.66667" width="42.66667" height="128" rx="21.33331" ry="21.33331" style="fill:#5e7599"/><rect x="320" y="362.66667" width="42.66667" height="128" rx="21.33331" ry="21.33331" style="fill:#5e7599"/><rect x="234.66667" y="362.66667" width="42.66667" height="128" rx="21.33331" ry="21.33331" style="fill:#5e7599"/><rect x="64" y="192" width="42.66667" height="128" rx="21.33331" ry="21.33331" transform="translate(-170.66667 341.33333) rotate(-90)" style="fill:#5e7599"/><rect x="405.33333" y="192" width="42.66667" height="128" rx="21.33331" ry="21.33331" transform="translate(170.66667 682.66667) rotate(-90)" style="fill:#5e7599"/><rect x="405.33333" y="277.33333" width="42.66667" height="128" rx="21.33331" ry="21.33331" transform="translate(85.33333 768) rotate(-90)" style="fill:#5e7599"/><rect x="405.33333" y="106.66667" width="42.66667" height="128" rx="21.33331" ry="21.33331" transform="translate(256 597.33333) rotate(-90)" style="fill:#5e7599"/><rect x="362.66667" y="149.33333" width="64" height="42.66667" rx="21.33331" ry="21.33331" style="fill:#435e88"/><rect x="362.66667" y="234.66667" width="64" height="42.66667" rx="21.33331" ry="21.33331" style="fill:#435e88"/><rect x="362.66667" y="320" width="64" height="42.66667" rx="21.33331" ry="21.33331" style="fill:#435e88"/><rect x="138.66667" y="96" width="64" height="42.66667" rx="21.33331" ry="21.33331" transform="translate(53.33333 288) rotate(-90)" style="fill:#435e88"/><rect x="224" y="96" width="64" height="42.66667" rx="21.33331" ry="21.33331" transform="translate(138.66667 373.33333) rotate(-90)" style="fill:#435e88"/><rect x="309.33333" y="96" width="64" height="42.66667" rx="21.33331" ry="21.33331" transform="translate(224 458.66667) rotate(-90)" style="fill:#435e88"/><rect x="138.66667" y="373.33333" width="64" height="42.66667" rx="21.33331" ry="21.33331" transform="translate(-224 565.33333) rotate(-90)" style="fill:#435e88"/><rect x="224" y="373.33333" width="64" height="42.66667" rx="21.33331" ry="21.33331" transform="translate(-138.66667 650.66667) rotate(-90)" style="fill:#435e88"/><rect x="309.33333" y="373.33333" width="64" height="42.66667" rx="21.33331" ry="21.33331" transform="translate(-53.33333 736) rotate(-90)" style="fill:#435e88"/><rect x="64" y="277.33333" width="42.66667" height="128" rx="21.33331" ry="21.33331" transform="translate(-256 426.66667) rotate(-90)" style="fill:#5e7599"/><rect x="85.33333" y="149.33333" width="64" height="42.66667" rx="21.33331" ry="21.33331" style="fill:#435e88"/><rect x="85.33333" y="234.66667" width="64" height="42.66667" rx="21.33331" ry="21.33331" style="fill:#435e88"/><rect x="85.33333" y="320" width="64" height="42.66667" rx="21.33331" ry="21.33331" style="fill:#435e88"/><rect x="106.66667" y="106.66667" width="298.66667" height="298.66667" rx="42.66667" ry="42.66667" style="fill:#cdd4df"/><path d="M179.50322,256h0a30.16985,30.16985,0,0,1-30.16985-30.16984v-46.327a30.16985,30.16985,0,0,1,30.16985-30.16985h46.327A30.16985,30.16985,0,0,1,256,179.50318v0a30.16985,30.16985,0,0,1-8.83654,21.3333l-46.32694,46.32694A30.16985,30.16985,0,0,1,179.50322,256Z" style="fill:#e5e8ef"/><path d="M362.66667,405.33333H149.33333a42.71554,42.71554,0,0,1-42.66666-42.66666,21.33333,21.33333,0,1,1,42.66666,0H362.66667V149.33333a21.33333,21.33333,0,1,1,0-42.66666,42.71554,42.71554,0,0,1,42.66666,42.66666V362.66667A42.71554,42.71554,0,0,1,362.66667,405.33333Z" style="fill:#adb9ca"/></g></svg>
